<svg xmlns="http://www.w3.org/2000/svg" width="2500" height="2500" viewBox="0 0 192.756 192.756"><g fill-rule="evenodd" clip-rule="evenodd"><path d="M8.504 87.21c0-.883.976-2.048 2.633-2.048 1.658 0 3.023.683 4.682 1.366s3.804 1.17 6.242 1.17 7.315-.195 14.337-2.438 17.653-4.876 26.43-6.535c1.154-.218 1.366-.39 1.854-1.17.487-.78 1.561-2.341 3.901-2.341 2.048 0 3.023.878 3.511 1.17.487.293.975.195 2.536-.097 12.255-2.298 24.172-3.609 37.744-3.609 10.305 0 12.824.22 14.336.976 1.021.511.977 1.463.293 2.341-.682.878-2.633 2.73-3.9 3.511s-2.244.391-3.023 1.17c-.781.781-3.707 4.877-7.314 4.877-3.072 0-4-1.642-4-3.024 0-1.365 2.146-3.315 4.098-3.315 1.949 0 3.705.584 4.389.098.682-.488-.781-.683-.098-1.854.682-1.17-.098-1.951-3.316-1.951s-9.754.098-19.018 1.073c-9.266.976-23.212 3.804-23.212 3.804s.195.683-.877 2.146c-1.073 1.463-5.462 7.9-9.266 17.262-4.828 11.885-2.536 13.816-2.536 16.482 0 1.463-.877 2.342-3.316 2.342-4.145 0-5.169-1.236-5.169-5.754 0-4.012 1.219-9.115 5.559-18.824 2.227-4.981 3.901-7.998 5.364-10.631.382-.688.488-.878-1.17-.585-1.658.292-7.12 1.463-15.41 3.901-8.29 2.438-15.507 4.682-23.992 4.682-8.488-.001-12.292-3.317-12.292-4.195z" data-index="1" style="visibility: hidden;"></path><path d="M117.445 115.104c-1.756 0-2.439-2.047-2.439-3.705s.684-4.389 2.049-6.926c1.365-2.535 2.34-3.705 3.219-4.389.877-.682.584-1.072 1.365-1.561.779-.486.975-.779 1.365-.293.391.488 1.072 1.951 2.633 2.83 1.561.877 4.291 1.072 5.17 1.559.877.488.584.586.195 1.172-.391.584-2.732 3.51-6.34 6.729-3.609 3.218-5.267 4.584-7.217 4.584zM132.27 99.012c-2.633 0-3.414-1.365-3.414-2.73 0-1.366-.391-2.536.293-3.122.682-.585 2.242-1.561 2.926-2.341.682-.78-.098-1.658.391-2.341.486-.683 2.535-.292 3.217.195.684.487 1.074 1.268.781 3.511-.293 2.243-1.561 4.194-1.561 4.974-.001.781-.489 1.854-2.633 1.854z" fill="#fff" data-index="3" style="visibility: hidden;"></path></g></svg>