<?xml version="1.0" encoding="utf-8"?>
<!-- Svg Vector Icons : http://www.onlinewebfonts.com/icon -->
<!DOCTYPE svg PUBLIC "-//W3C//DTD SVG 1.1//EN" "http://www.w3.org/Graphics/SVG/1.1/DTD/svg11.dtd">
<svg version="1.1" xmlns="http://www.w3.org/2000/svg" xmlns:xlink="http://www.w3.org/1999/xlink" x="0px" y="0px" viewBox="0 0 256 256" enable-background="new 0 0 256 256" xml:space="preserve">
<metadata> Svg Vector Icons : http://www.onlinewebfonts.com/icon </metadata>
<g> <path fill="#fbd6af" d="M128,15.1c-51,0-92.4,41.4-92.4,92.4S77,199.9,128,199.9s92.4-41.3,92.4-92.4S179,15.1,128,15.1z  M128,158.9c-22.7,0-41-18.4-41-41c0-22.7,18.4-41,41-41c22.7,0,41,18.4,41,41C169.1,140.5,150.7,158.9,128,158.9L128,158.9z"/> <path fill="#f5a948" d="M128,205c-53.8,0-97.5-43.6-97.5-97.5c0-25.9,10.3-50.7,28.6-69c38.1-38.1,99.8-38.1,137.9,0 c38.1,38.1,38.1,99.8,0,137.9C178.7,194.8,153.9,205.1,128,205z M128,20.3c-48.1,0-87.2,39.1-87.2,87.2c0,48.1,39.1,87.2,87.2,87.2 c48.1,0,87.2-39.1,87.2-87.2C215.2,59.4,176.1,20.3,128,20.3z"/> <path fill="#f5a948" d="M128,164c-25.5,0-46.2-20.7-46.2-46.2c0-25.5,20.7-46.2,46.2-46.2c25.5,0,46.2,20.7,46.2,46.2 C174.2,143.3,153.5,164,128,164z M128,81.9c-19.8,0-35.9,16.1-35.9,35.9c0,19.8,16.1,35.9,35.9,35.9c19.8,0,35.9-16.1,35.9-35.9 C163.9,98,147.8,81.9,128,81.9L128,81.9z M122.9,194.7h10.3V246h-10.3V194.7z"/> <path fill="#f5a948" d="M189.6,246H66.4c-2.8,0-5.1-2.3-5.1-5.1c0-2.8,2.3-5.1,5.1-5.1h123.2c2.8,0,5.1,2.3,5.1,5.1 C194.7,243.7,192.4,246,189.6,246z"/></g>
</svg>